<svg viewBox="0 0 64 64" xmlns="http://www.w3.org/2000/svg" aria-label="Bewu3D logo" role="img">
  <defs><linearGradient id="g" x1="0" x2="1" y1="0" y2="1"><stop offset="0%" stop-color="#36F3D6" /><stop offset="100%" stop-color="#00A3FF" /></linearGradient></defs>
  <rect x="2" y="2" width="60" height="60" rx="12" fill="#0B0F14" />
  <g transform="translate(10,10)"><path d="M8 6h16c7 0 12 4 12 10 0 3-1 5-4 7 4 2 6 5 6 9 0 6-5 10-12 10H8V6zm10 8v8h6c3 0 6-2 6-4s-3-4-6-4h-6zm0 18v8h8c4 0 7-2 7-4s-3-4-7-4h-8z" fill="url(#g)" /></g>
</svg>
